<svg width="50" height="40" viewBox="0 0 50 40" fill="none" xmlns="http://www.w3.org/2000/svg">
<path d="M23.9874 39.2034L4.03075 19.2468C-7.10545 8.11059 9.20282 -6.96791 19.7462 3.56892L23.6134 7.53574C23.8686 7.90626 24.2101 8.2092 24.6084 8.41848C25.0067 8.62776 25.4499 8.73711 25.8998 8.73711C26.3497 8.73711 26.7929 8.62776 27.1912 8.41848C27.5895 8.2092 27.9309 7.90626 28.1861 7.53574L32.7213 3.06102C32.9234 2.79006 33.1791 2.56359 33.4725 2.39573C33.7659 2.22787 34.0907 2.12221 34.4267 2.08532C34.7627 2.04843 35.1027 2.08111 35.4255 2.18132C35.7484 2.28153 36.0471 2.44712 36.3032 2.66778C36.5592 2.88845 36.7671 3.15947 36.9139 3.46396C37.0607 3.76845 37.1432 4.0999 37.1563 4.43766C37.1695 4.77543 37.1129 5.11229 36.9902 5.42726C36.8675 5.74222 36.6813 6.02856 36.4432 6.26845L25.6483 17.145C23.6771 19.1161 26.2787 21.4694 28.1453 19.6044L30.9396 16.8837C31.1481 16.6113 31.4118 16.3859 31.7133 16.2223C32.0149 16.0587 32.3475 15.9605 32.6896 15.9342C33.0317 15.9079 33.3754 15.954 33.6985 16.0695C34.0215 16.185 34.3165 16.3674 34.5643 16.6046C34.8121 16.8419 35.0071 17.1288 35.1365 17.4465C35.2659 17.7642 35.3268 18.1057 35.3154 18.4485C35.3039 18.7914 35.2202 19.128 35.0698 19.4364C34.9194 19.7447 34.7057 20.0179 34.4426 20.2381L26.0288 28.7106C23.927 30.8124 26.277 33.3944 28.4213 31.2485L40.312 19.6044C43.1602 16.7563 46.2663 20.5026 43.8363 22.9327L27.8007 39.2099C27.2945 39.7158 26.6081 40 25.8924 40C25.1767 40 24.4904 39.7158 23.9841 39.2099L23.9874 39.2034ZM44.1907 15.8646C44.1907 15.3604 44.3402 14.8675 44.6203 14.4483C44.9004 14.0291 45.2986 13.7023 45.7644 13.5094C46.2302 13.3164 46.7428 13.2659 47.2373 13.3643C47.7318 13.4627 48.186 13.7055 48.5426 14.062C48.8991 14.4185 49.1419 14.8727 49.2403 15.3673C49.3386 15.8618 49.2881 16.3743 49.0952 16.8402C48.9022 17.306 48.5755 17.7041 48.1563 17.9842C47.737 18.2644 47.2442 18.4139 46.7399 18.4139C46.0638 18.4139 45.4154 18.1453 44.9373 17.6672C44.4592 17.1891 44.1907 16.5407 44.1907 15.8646ZM36.4644 11.4993C39.0611 8.90265 41.8112 6.11003 44.5695 3.35008C47.3279 0.590124 50.6823 3.93963 48.066 6.55587C45.4498 9.17211 39.7812 14.7541 39.7812 14.7541C39.5303 15.0254 39.2277 15.2439 38.8911 15.3967C38.5546 15.5496 38.191 15.6337 37.8215 15.6441C37.3361 15.6486 36.8618 15.4984 36.4675 15.2154C36.0731 14.9323 35.779 14.5311 35.6278 14.0698C35.4767 13.6085 35.4763 13.1111 35.6267 12.6495C35.7771 12.188 36.0705 11.7862 36.4644 11.5026V11.4993Z" fill="#6D9147"/>
</svg>
