<svg width="40" height="40" viewBox="0 0 40 40" fill="none" xmlns="http://www.w3.org/2000/svg">
<g clip-path="url(#clip0)">
<path d="M0 2.93385C0 1.35862 1.31877 0.08 2.94443 0.08H36.8956C38.5219 0.08 39.84 1.35862 39.84 2.93385V37.0666C39.84 38.6423 38.5219 39.92 36.8956 39.92H2.94443C1.31892 39.92 0 38.6425 0 37.0671V2.93338V2.93385Z" fill="#6D9147"/>
<path d="M12.107 33.4208V15.4846H6.14535V33.4208H12.1077H12.107ZM9.12743 13.0362C11.206 13.0362 12.5 11.6589 12.5 9.93768C12.4611 8.17724 11.206 6.83839 9.16696 6.83839C7.12656 6.83839 5.79395 8.17724 5.79395 9.93752C5.79395 11.6587 7.0875 13.036 9.08837 13.036H9.12697L9.12743 13.0362ZM15.4069 33.4208H21.3681V23.4055C21.3681 22.8702 21.407 22.3334 21.5645 21.951C21.9953 20.8796 22.9762 19.7704 24.6235 19.7704C26.7801 19.7704 27.6434 21.4151 27.6434 23.8265V33.4208H33.6044V23.1368C33.6044 17.6278 30.6638 15.0641 26.7415 15.0641C23.5259 15.0641 22.1136 16.8615 21.3289 18.0856H21.3686V15.4853H15.4072C15.485 17.1679 15.4067 33.4214 15.4067 33.4214L15.4069 33.4208Z" fill="white"/>
</g>
<defs>
<clipPath id="clip0">
<rect width="39.84" height="40" fill="white"/>
</clipPath>
</defs>
</svg>
