<svg width="50" height="40" viewBox="0 0 50 40" fill="none" xmlns="http://www.w3.org/2000/svg">
<path d="M15.4729 40C34.0398 40 44.1934 24.6124 44.1934 11.2688C44.1934 10.8318 44.1845 10.3968 44.1648 9.9636C46.1405 8.53352 47.8455 6.76285 49.2 4.7346C47.3913 5.539 45.445 6.0804 43.4032 6.3245C45.4873 5.0744 47.0872 3.0967 47.8421 0.7393C45.8606 1.91519 43.6928 2.74414 41.4323 3.1904C39.5903 1.2276 36.9679 0 34.0641 0C28.4897 0 23.9693 4.5222 23.9693 10.0965C23.9693 10.889 24.058 11.6596 24.2312 12.399C15.8417 11.9767 8.4025 7.9585 3.4238 1.8486C2.52709 3.38964 2.05543 5.14106 2.057 6.924C2.057 10.4274 3.839 13.5201 6.549 15.3295C4.946 15.2805 3.37819 14.8474 1.9774 14.0665C1.9759 14.1089 1.9759 14.1502 1.9759 14.1955C1.9759 19.0858 5.4553 23.1689 10.0741 24.0941C9.20663 24.3304 8.31149 24.4499 7.4124 24.4494C6.7631 24.4494 6.1303 24.3855 5.5153 24.2674C6.8004 28.2796 10.5268 31.1993 14.9449 31.2809C11.49 33.9898 7.1379 35.6033 2.4078 35.6033C1.60315 35.604 0.799157 35.5573 0 35.4634C4.4674 38.3279 9.772 39.9993 15.4734 39.9993" fill="#6D9147"/>
</svg>
