<svg width="42" height="42" viewBox="0 0 42 42" fill="none" xmlns="http://www.w3.org/2000/svg">
<path d="M21 1C9.96842 1 1 9.96842 1 21C1 32.0316 9.96842 41 21 41C32.0316 41 41 32.0316 41 21C41 9.96842 32.0316 1 21 1ZM25.2947 11.4C23.9053 11.6526 22.4737 11.7789 21 11.7789C19.5263 11.7789 18.0947 11.6526 16.7053 11.4C17.8 6.43158 19.6105 3.48421 21 3.48421C22.3895 3.48421 24.2 6.43158 25.2947 11.4ZM25.2526 4.03158C28.2842 4.78947 31.0211 6.34737 33.2105 8.49474C31.6105 9.50526 29.7579 10.3053 27.7368 10.8526C27.1474 8.15789 26.3053 5.8 25.2526 4.03158ZM15.7789 19.7368C15.8211 17.5895 15.9895 15.6105 16.2842 13.8421C17.8421 14.0947 19.4 14.2632 21.0421 14.2632C22.6421 14.2632 24.2421 14.0947 25.8 13.8421C26.0526 15.6105 26.2211 17.5895 26.3053 19.7368H15.7789ZM26.2211 22.2632C26.1789 24.4105 26.0105 26.3895 25.7579 28.1579C24.2 27.9053 22.6421 27.7368 21 27.7368C19.4 27.7368 17.8 27.9053 16.2421 28.1579C15.9895 26.3895 15.8211 24.4105 15.7789 22.2632H26.2211ZM14.2632 10.8526C12.2421 10.3053 10.3895 9.50526 8.78947 8.49474C10.9789 6.34737 13.7158 4.83158 16.7474 4.03158C15.6947 5.8 14.8526 8.15789 14.2632 10.8526ZM13.8421 13.3368C13.5053 15.4 13.3368 17.5895 13.2947 19.7789H3.61053C3.86316 16.2842 5.16842 13.0421 7.18947 10.3895C9.04211 11.6526 11.3579 12.6632 13.8421 13.3368ZM13.2526 22.2632C13.2947 24.4526 13.5053 26.6 13.8 28.7053C11.3158 29.379 9.04211 30.3474 7.10526 31.6526C5.08421 29 3.82105 25.7579 3.56842 22.2632H13.2526ZM14.2632 31.1474C14.8526 33.8421 15.6947 36.2421 16.7474 37.9684C13.7158 37.2105 10.9789 35.6526 8.78947 33.5053C10.3895 32.4947 12.2421 31.6947 14.2632 31.1474ZM16.7053 30.6C18.0947 30.3474 19.5263 30.2211 21 30.2211C22.4737 30.2211 23.9053 30.3474 25.2947 30.6C24.2 35.5684 22.3895 38.5158 21 38.5158C19.6105 38.5158 17.8 35.5684 16.7053 30.6ZM27.7368 31.1474C29.7579 31.6947 31.6105 32.4947 33.2105 33.5474C31.0211 35.6947 28.2842 37.2105 25.2526 38.0105C26.3053 36.2 27.1474 33.8421 27.7368 31.1474ZM28.1579 28.6632C28.4947 26.6 28.6632 24.4105 28.7053 22.2211H38.3895C38.1368 25.7158 36.8316 28.9579 34.8105 31.6105C32.9158 30.3474 30.6421 29.3368 28.1579 28.6632ZM28.7474 19.7368C28.7053 17.5474 28.4947 15.4 28.2 13.2947C30.6842 12.6211 32.9579 11.6526 34.8947 10.3474C36.9158 13 38.2211 16.2 38.4737 19.7368H28.7474Z" fill="#6D9147" stroke="#6D9147"/>
</svg>
