<svg width="22" height="16" viewBox="0 0 22 16" fill="none" xmlns="http://www.w3.org/2000/svg">
<path d="M10.4264 7.04813C10.5904 7.16338 10.785 7.2251 10.9843 7.2251C11.1835 7.2251 11.3781 7.16338 11.5421 7.04813L20.8843 0.504225C20.4269 0.169342 19.8761 -0.00731276 19.3128 0.000231997H2.65569C2.10936 0.000488755 1.57663 0.173833 1.13141 0.496225L10.4264 7.04813Z" fill="#183F4F"/>
<path d="M12.4379 8.36809C12.0108 8.66526 11.5055 8.82425 10.9882 8.82425C10.4709 8.82425 9.96566 8.66526 9.53857 8.36809L0.172857 1.76819C0.0606509 2.06713 0.00210199 2.38416 0 2.70417V13.304C0.00207982 14.0198 0.282795 14.7055 0.780613 15.2108C1.27843 15.7162 1.95273 16 2.65571 16H19.3521C20.0538 15.9979 20.726 15.7132 21.2222 15.208C21.7183 14.7029 21.9979 14.0184 22 13.304V2.70417C21.9985 2.39002 21.9427 2.07859 21.835 1.78419L12.4379 8.36809Z" fill="#183F4F"/>
</svg>
