<svg width="116" height="24" viewBox="0 0 116 24" fill="none" xmlns="http://www.w3.org/2000/svg">
<path d="M0 10.9714C0 7.13107 0 5.21089 0.747384 3.74407C1.4048 2.45381 2.45381 1.4048 3.74407 0.747384C5.21089 0 7.13107 0 10.9714 0H13.0286C16.8689 0 18.7891 0 20.2559 0.747384C21.5462 1.4048 22.5952 2.45381 23.2526 3.74407C24 5.21089 24 7.13107 24 10.9714V13.0286C24 16.8689 24 18.7891 23.2526 20.2559C22.5952 21.5462 21.5462 22.5952 20.2559 23.2526C18.7891 24 16.8689 24 13.0286 24H10.9714C7.13107 24 5.21089 24 3.74407 23.2526C2.45381 22.5952 1.4048 21.5462 0.747384 20.2559C0 18.7891 0 16.8689 0 13.0286V10.9714Z" fill="url(#paint0_linear)"/>
<path fill-rule="evenodd" clip-rule="evenodd" d="M19.8 4.31656C19.3877 5.37618 18.9771 6.4358 18.5683 7.49542C18.1594 8.55504 17.7496 9.60979 17.3391 10.6597C16.8956 11.7616 16.0438 12.6708 14.9445 13.2154C13.8628 13.7794 12.6003 13.9424 11.4 13.673C11.8089 12.6166 12.2186 11.5619 12.6292 10.5088L13.8635 7.33234C14.3128 6.23791 15.158 5.33249 16.2466 4.77948C17.3352 4.22646 18.5955 4.06228 19.8 4.31656Z" fill="white"/>
<path fill-rule="evenodd" clip-rule="evenodd" d="M12.6 9.72023L11.3675 12.8792L10.1375 16.0382C9.69744 17.1465 8.84497 18.0629 7.74157 18.614C6.66062 19.1754 5.40052 19.3406 4.20001 19.0781L5.4402 15.8997L6.67271 12.7407C7.1152 11.6414 7.9656 10.7339 9.06358 10.1892C10.142 9.62604 11.4006 9.45913 12.6 9.72023Z" fill="white"/>
<path d="M44.9554 10.1133C44.9554 11.0784 44.7364 11.9644 44.2983 12.7714C43.8602 13.5625 43.1875 14.2032 42.28 14.6937C41.3726 15.1842 40.2462 15.4295 38.9007 15.4295H36.4131V21.4102H32.4V4.74959H38.9007C40.2149 4.74959 41.3257 4.97901 42.2331 5.43785C43.1405 5.89669 43.8211 6.52957 44.2748 7.33649C44.7285 8.14342 44.9554 9.06901 44.9554 10.1133ZM38.5956 12.2018C39.3622 12.2018 39.9333 12.0198 40.3087 11.6559C40.6842 11.292 40.872 10.7778 40.872 10.1133C40.872 9.44873 40.6842 8.93452 40.3087 8.57061C39.9333 8.20671 39.3622 8.02475 38.5956 8.02475H36.4131V12.2018H38.5956Z" fill="white"/>
<path d="M51.0576 10.3743C51.527 9.64651 52.1137 9.07692 52.8177 8.66554C53.5218 8.23835 54.304 8.02475 55.1645 8.02475V12.3204H54.0615C53.0602 12.3204 52.3093 12.5419 51.8086 12.985C51.308 13.4121 51.0576 14.1716 51.0576 15.2633V21.4102H47.0446V8.16715H51.0576V10.3743Z" fill="white"/>
<path d="M56.2848 14.7649C56.2848 13.4042 56.5351 12.2097 57.0357 11.1812C57.552 10.1528 58.2482 9.36171 59.1244 8.80794C60.0005 8.25417 60.9784 7.97729 62.0579 7.97729C62.981 7.97729 63.7867 8.16715 64.4751 8.54688C65.1791 8.92661 65.7189 9.425 66.0944 10.0421V8.16715H70.1074V21.4102H66.0944V19.5353C65.7032 20.1523 65.1557 20.6507 64.4516 21.0304C63.7632 21.4102 62.9575 21.6 62.0344 21.6C60.9705 21.6 60.0005 21.3232 59.1244 20.7694C58.2482 20.1998 57.552 19.4008 57.0357 18.3724C56.5351 17.3281 56.2848 16.1256 56.2848 14.7649ZM66.0944 14.7887C66.0944 13.7761 65.8128 12.977 65.2495 12.3916C64.7019 11.8062 64.0292 11.5135 63.2313 11.5135C62.4334 11.5135 61.7528 11.8062 61.1896 12.3916C60.642 12.9612 60.3682 13.7523 60.3682 14.7649C60.3682 15.7775 60.642 16.5845 61.1896 17.1857C61.7528 17.7711 62.4334 18.0638 63.2313 18.0638C64.0292 18.0638 64.7019 17.7711 65.2495 17.1857C65.8128 16.6003 66.0944 15.8013 66.0944 14.7887Z" fill="white"/>
<path d="M75.0289 6.79063C74.3249 6.79063 73.746 6.58495 73.2923 6.17358C72.8542 5.74638 72.6352 5.22425 72.6352 4.6072C72.6352 3.97432 72.8542 3.45219 73.2923 3.04082C73.746 2.61362 74.3249 2.40002 75.0289 2.40002C75.7173 2.40002 76.2805 2.61362 76.7186 3.04082C77.1723 3.45219 77.3992 3.97432 77.3992 4.6072C77.3992 5.22425 77.1723 5.74638 76.7186 6.17358C76.2805 6.58495 75.7173 6.79063 75.0289 6.79063ZM77.0237 8.16715V21.4102H73.0107V8.16715H77.0237Z" fill="white"/>
<path d="M83.9449 10.3743C84.4143 9.64651 85.001 9.07692 85.705 8.66554C86.409 8.23835 87.1913 8.02475 88.0518 8.02475V12.3204H86.9488C85.9475 12.3204 85.1965 12.5419 84.6959 12.985C84.1952 13.4121 83.9449 14.1716 83.9449 15.2633V21.4102H79.9319V8.16715H83.9449V10.3743Z" fill="white"/>
<path d="M91.9882 6.79063C91.2842 6.79063 90.7053 6.58495 90.2516 6.17358C89.8135 5.74638 89.5945 5.22425 89.5945 4.6072C89.5945 3.97432 89.8135 3.45219 90.2516 3.04082C90.7053 2.61362 91.2842 2.40002 91.9882 2.40002C92.6766 2.40002 93.2398 2.61362 93.6779 3.04082C94.1316 3.45219 94.3585 3.97432 94.3585 4.6072C94.3585 5.22425 94.1316 5.74638 93.6779 6.17358C93.2398 6.58495 92.6766 6.79063 91.9882 6.79063ZM93.983 8.16715V21.4102H89.9699V8.16715H93.983Z" fill="white"/>
<path d="M109.235 14.5751C109.235 14.9548 109.212 15.3503 109.165 15.7617H100.083C100.145 16.5845 100.404 17.2173 100.857 17.6604C101.327 18.0876 101.898 18.3012 102.57 18.3012C103.572 18.3012 104.268 17.874 104.659 17.0196H108.93C108.711 17.8898 108.312 18.673 107.733 19.3691C107.17 20.0653 106.458 20.6112 105.598 21.0067C104.737 21.4023 103.775 21.6 102.711 21.6C101.428 21.6 100.286 21.3232 99.2849 20.7694C98.2836 20.2156 97.5013 19.4245 96.9381 18.3961C96.3749 17.3677 96.0933 16.1652 96.0933 14.7887C96.0933 13.4121 96.3671 12.2097 96.9146 11.1812C97.4779 10.1528 98.2601 9.36171 99.2614 8.80794C100.263 8.25417 101.413 7.97729 102.711 7.97729C103.979 7.97729 105.105 8.24626 106.091 8.78421C107.076 9.32216 107.843 10.0895 108.39 11.0863C108.954 12.0831 109.235 13.246 109.235 14.5751ZM105.128 13.5071C105.128 12.8109 104.894 12.2571 104.424 11.8458C103.955 11.4344 103.368 11.2287 102.664 11.2287C101.992 11.2287 101.42 11.4265 100.951 11.822C100.497 12.2176 100.216 12.7793 100.106 13.5071H105.128Z" fill="white"/>
<path d="M113.23 21.6C112.526 21.6 111.947 21.3943 111.493 20.983C111.055 20.5558 110.836 20.0336 110.836 19.4166C110.836 18.7837 111.055 18.2537 111.493 17.8265C111.947 17.3993 112.526 17.1857 113.23 17.1857C113.918 17.1857 114.481 17.3993 114.92 17.8265C115.373 18.2537 115.6 18.7837 115.6 19.4166C115.6 20.0336 115.373 20.5558 114.92 20.983C114.481 21.3943 113.918 21.6 113.23 21.6Z" fill="#36BCA8"/>
<defs>
<linearGradient id="paint0_linear" x1="12" y1="0" x2="12" y2="24" gradientUnits="userSpaceOnUse">
<stop stop-color="#35BCA8"/>
<stop offset="1" stop-color="#91BE72"/>
</linearGradient>
</defs>
</svg>
