<svg width="306" height="52" viewBox="0 0 306 52" fill="none" xmlns="http://www.w3.org/2000/svg">
<path d="M0 20.3102C0 13.201 0 9.64635 1.38355 6.93098C2.60055 4.54247 4.54247 2.60055 6.93098 1.38355C9.64635 0 13.201 0 20.3102 0H24.1184C31.2276 0 34.7822 0 37.4976 1.38355C39.8861 2.60055 41.828 4.54247 43.045 6.93098C44.4286 9.64635 44.4286 13.201 44.4286 20.3102V24.1184C44.4286 31.2276 44.4286 34.7822 43.045 37.4976C41.828 39.8861 39.8861 41.828 37.4976 43.045C34.7822 44.4286 31.2276 44.4286 24.1184 44.4286H20.3102C13.201 44.4286 9.64635 44.4286 6.93098 43.045C4.54247 41.828 2.60055 39.8861 1.38355 37.4976C0 34.7822 0 31.2276 0 24.1184V20.3102Z" fill="url(#paint0_linear)"/>
<path fill-rule="evenodd" clip-rule="evenodd" d="M36.6536 7.99087C35.8904 9.95243 35.1303 11.914 34.3734 13.8755C33.6165 15.8371 32.858 17.7896 32.0979 19.7332C31.2769 21.7731 29.7001 23.4562 27.6652 24.4643C25.6627 25.5083 23.3256 25.8101 21.1036 25.3115C21.8606 23.3559 22.6191 21.4034 23.3791 19.4538L25.6641 13.5736C26.4958 11.5477 28.0604 9.87156 30.0756 8.84782C32.0908 7.82408 34.4238 7.52015 36.6536 7.99087Z" fill="white"/>
<path fill-rule="evenodd" clip-rule="evenodd" d="M23.325 17.994L21.0434 23.8418L18.7665 29.6897C17.9518 31.7414 16.3737 33.4379 14.3311 34.458C12.3301 35.4973 9.99739 35.803 7.77502 35.3172L10.0708 29.4333L12.3525 23.5854C13.1716 21.5504 14.7458 19.8704 16.7784 18.8621C18.7747 17.8196 21.1046 17.5106 23.325 17.994Z" fill="white"/>
<path d="M83.221 18.7215C83.221 20.5082 82.8155 22.1484 82.0046 23.6422C81.1936 25.1066 79.9482 26.2929 78.2684 27.2008C76.5886 28.1088 74.5033 28.5628 72.0125 28.5628H67.4075V39.6343H59.9786V8.79237H72.0125C74.4454 8.79237 76.5017 9.21707 78.1815 10.0665C79.8614 10.9159 81.1212 12.0874 81.9611 13.5812C82.801 15.075 83.221 16.7884 83.221 18.7215ZM71.4478 22.5877C72.8669 22.5877 73.9241 22.2509 74.6192 21.5773C75.3143 20.9036 75.6618 19.9517 75.6618 18.7215C75.6618 17.4914 75.3143 16.5395 74.6192 15.8658C73.9241 15.1921 72.8669 14.8553 71.4478 14.8553H67.4075V22.5877H71.4478Z" fill="white"/>
<path d="M94.5174 19.2048C95.3863 17.8575 96.4723 16.8031 97.7757 16.0415C99.079 15.2507 100.527 14.8553 102.12 14.8553V22.8074H100.078C98.2246 22.8074 96.8344 23.2175 95.9076 24.0376C94.9808 24.8284 94.5174 26.2343 94.5174 28.2553V39.6343H87.0885V15.1189H94.5174V19.2048Z" fill="white"/>
<path d="M104.194 27.3327C104.194 24.8137 104.657 22.6024 105.584 20.6986C106.54 18.7947 107.829 17.3303 109.45 16.3051C111.072 15.28 112.883 14.7674 114.881 14.7674C116.59 14.7674 118.081 15.1189 119.356 15.8219C120.659 16.5248 121.658 17.4474 122.353 18.5897V15.1189H129.782V39.6343H122.353V36.1634C121.629 37.3057 120.615 38.2284 119.312 38.9313C118.038 39.6343 116.546 39.9857 114.837 39.9857C112.868 39.9857 111.072 39.4732 109.45 38.448C107.829 37.3936 106.54 35.9145 105.584 34.0107C104.657 32.0776 104.194 29.8516 104.194 27.3327ZM122.353 27.3766C122.353 25.5021 121.832 24.0229 120.789 22.9392C119.776 21.8555 118.53 21.3137 117.053 21.3137C115.576 21.3137 114.316 21.8555 113.274 22.9392C112.26 23.9936 111.753 25.4581 111.753 27.3327C111.753 29.2072 112.26 30.7009 113.274 31.814C114.316 32.8977 115.576 33.4395 117.053 33.4395C118.53 33.4395 119.776 32.8977 120.789 31.814C121.832 30.7302 122.353 29.2511 122.353 27.3766Z" fill="white"/>
<path d="M138.893 12.5707C137.589 12.5707 136.518 12.19 135.678 11.4284C134.867 10.6376 134.461 9.67106 134.461 8.52876C134.461 7.35718 134.867 6.39063 135.678 5.6291C136.518 4.83828 137.589 4.44287 138.893 4.44287C140.167 4.44287 141.21 4.83828 142.021 5.6291C142.861 6.39063 143.281 7.35718 143.281 8.52876C143.281 9.67106 142.861 10.6376 142.021 11.4284C141.21 12.19 140.167 12.5707 138.893 12.5707ZM142.585 15.1189V39.6343H135.157V15.1189H142.585Z" fill="white"/>
<path d="M155.398 19.2048C156.267 17.8575 157.353 16.8031 158.656 16.0415C159.96 15.2507 161.408 14.8553 163.001 14.8553V22.8074H160.959C159.105 22.8074 157.715 23.2175 156.788 24.0376C155.861 24.8284 155.398 26.2343 155.398 28.2553V39.6343H147.969V15.1189H155.398V19.2048Z" fill="white"/>
<path d="M170.288 12.5707C168.984 12.5707 167.913 12.19 167.073 11.4284C166.262 10.6376 165.856 9.67106 165.856 8.52876C165.856 7.35718 166.262 6.39063 167.073 5.6291C167.913 4.83828 168.984 4.44287 170.288 4.44287C171.562 4.44287 172.605 4.83828 173.416 5.6291C174.255 6.39063 174.675 7.35718 174.675 8.52876C174.675 9.67106 174.255 10.6376 173.416 11.4284C172.605 12.19 171.562 12.5707 170.288 12.5707ZM173.98 15.1189V39.6343H166.551V15.1189H173.98Z" fill="white"/>
<path d="M202.215 26.9812C202.215 27.6841 202.172 28.4164 202.085 29.1779H185.272C185.388 30.7009 185.866 31.8725 186.706 32.6926C187.575 33.4835 188.632 33.8789 189.877 33.8789C191.731 33.8789 193.02 33.088 193.744 31.5064H201.651C201.245 33.1173 200.506 34.5672 199.435 35.8559C198.392 37.1446 197.074 38.1551 195.481 38.8874C193.889 39.6196 192.107 39.9857 190.138 39.9857C187.763 39.9857 185.649 39.4732 183.795 38.448C181.942 37.4229 180.493 35.9584 179.451 34.0546C178.408 32.1508 177.887 29.9248 177.887 27.3766C177.887 24.8284 178.394 22.6024 179.407 20.6986C180.45 18.7947 181.898 17.3303 183.752 16.3051C185.605 15.28 187.734 14.7674 190.138 14.7674C192.484 14.7674 194.569 15.2654 196.394 16.2612C198.218 17.257 199.638 18.6776 200.651 20.5228C201.694 22.3681 202.215 24.5209 202.215 26.9812ZM194.613 25.0041C194.613 23.7154 194.178 22.6903 193.309 21.9287C192.44 21.1672 191.354 20.7864 190.051 20.7864C188.806 20.7864 187.749 21.1526 186.88 21.8848C186.04 22.617 185.518 23.6568 185.316 25.0041H194.613Z" fill="white"/>
<path d="M232.966 23.7016C234.069 23.8775 235.071 24.3321 235.971 25.0652C236.9 25.7984 237.625 26.7075 238.148 27.7925C238.699 28.8776 238.975 30.036 238.975 31.2676C238.975 32.8219 238.583 34.2295 237.799 35.4905C237.016 36.7222 235.869 37.7046 234.36 38.4378C232.879 39.1416 231.123 39.4935 229.091 39.4935H217.77V8.83341H228.656C230.717 8.83341 232.473 9.18532 233.924 9.88914C235.376 10.5636 236.464 11.4874 237.19 12.6604C237.916 13.8335 238.278 15.1531 238.278 16.6194C238.278 18.4376 237.785 19.9479 236.798 21.1502C235.84 22.3233 234.563 23.1737 232.966 23.7016ZM221.732 22.074H228.394C230.252 22.074 231.689 21.6341 232.705 20.7543C233.721 19.8746 234.229 18.6575 234.229 17.1033C234.229 15.549 233.721 14.332 232.705 13.4522C231.689 12.5724 230.223 12.1326 228.307 12.1326H221.732V22.074ZM228.743 36.1944C230.717 36.1944 232.255 35.7252 233.358 34.7867C234.461 33.8483 235.013 32.5433 235.013 30.8717C235.013 29.1708 234.432 27.8365 233.271 26.8688C232.11 25.8717 230.557 25.3732 228.612 25.3732H221.732V36.1944H228.743Z" fill="white"/>
<path d="M248.436 6.94189V39.4935H244.474V6.94189H248.436Z" fill="white"/>
<path d="M265.596 39.8894C263.361 39.8894 261.329 39.3762 259.5 38.3498C257.7 37.3234 256.278 35.8718 255.233 33.9949C254.217 32.0888 253.709 29.8893 253.709 27.3966C253.709 24.9333 254.231 22.7632 255.276 20.8863C256.35 18.9801 257.802 17.5285 259.63 16.5314C261.459 15.505 263.506 14.9918 265.77 14.9918C268.034 14.9918 270.081 15.505 271.909 16.5314C273.738 17.5285 275.175 18.9655 276.22 20.8423C277.294 22.7192 277.831 24.9039 277.831 27.3966C277.831 29.8893 277.28 32.0888 276.177 33.9949C275.103 35.8718 273.637 37.3234 271.779 38.3498C269.921 39.3762 267.86 39.8894 265.596 39.8894ZM265.596 36.3703C267.018 36.3703 268.353 36.0331 269.602 35.3586C270.85 34.6841 271.851 33.6723 272.606 32.3234C273.39 30.9744 273.782 29.3321 273.782 27.3966C273.782 25.4611 273.404 23.8189 272.65 22.4699C271.895 21.1209 270.908 20.1238 269.689 19.4787C268.47 18.8042 267.149 18.4669 265.726 18.4669C264.275 18.4669 262.94 18.8042 261.721 19.4787C260.53 20.1238 259.572 21.1209 258.847 22.4699C258.121 23.8189 257.758 25.4611 257.758 27.3966C257.758 29.3615 258.107 31.0184 258.803 32.3674C259.529 33.7163 260.487 34.7281 261.677 35.4026C262.867 36.0477 264.173 36.3703 265.596 36.3703Z" fill="white"/>
<path d="M292.882 14.9918C294.942 14.9918 296.742 15.4464 298.281 16.3555C299.848 17.2646 301.009 18.4083 301.764 19.7866V15.3877H305.77V40.0214C305.77 42.2208 305.306 44.171 304.377 45.8719C303.448 47.6021 302.112 48.9511 300.371 49.9188C298.658 50.8866 296.655 51.3705 294.362 51.3705C291.227 51.3705 288.614 50.6227 286.524 49.127C284.434 47.6314 283.201 45.5933 282.823 43.0126H286.742C287.177 44.4789 288.077 45.6519 289.442 46.5317C290.806 47.4408 292.446 47.8954 294.362 47.8954C296.539 47.8954 298.31 47.2062 299.674 45.8279C301.067 44.4496 301.764 42.5141 301.764 40.0214V34.9627C300.98 36.3703 299.819 37.5434 298.281 38.4818C296.742 39.4202 294.942 39.8894 292.882 39.8894C290.762 39.8894 288.832 39.3616 287.09 38.3058C285.378 37.2501 284.028 35.7691 283.041 33.863C282.054 31.9568 281.561 29.7867 281.561 27.3526C281.561 24.8893 282.054 22.7338 283.041 20.8863C284.028 19.0095 285.378 17.5578 287.09 16.5314C288.832 15.505 290.762 14.9918 292.882 14.9918ZM301.764 27.3966C301.764 25.5784 301.401 23.9948 300.676 22.6459C299.95 21.2969 298.963 20.2705 297.715 19.5666C296.496 18.8335 295.146 18.4669 293.665 18.4669C292.185 18.4669 290.835 18.8188 289.616 19.5227C288.397 20.2265 287.424 21.2529 286.698 22.6019C285.973 23.9509 285.61 25.5344 285.61 27.3526C285.61 29.2002 285.973 30.8131 286.698 32.1914C287.424 33.5404 288.397 34.5814 289.616 35.3146C290.835 36.0184 292.185 36.3703 293.665 36.3703C295.146 36.3703 296.496 36.0184 297.715 35.3146C298.963 34.5814 299.95 33.5404 300.676 32.1914C301.401 30.8131 301.764 29.2148 301.764 27.3966Z" fill="white"/>
<defs>
<linearGradient id="paint0_linear" x1="22.2143" y1="0" x2="22.2143" y2="44.4286" gradientUnits="userSpaceOnUse">
<stop stop-color="#35BCA8"/>
<stop offset="1" stop-color="#91BE72"/>
</linearGradient>
</defs>
</svg>
