<svg width="32" height="32" viewBox="0 0 32 32" fill="none" xmlns="http://www.w3.org/2000/svg">
<rect width="32" height="32" rx="4" fill="#6D9147"/>
<path d="M23.8949 15.7333L21.7159 13.5162V9.14286C21.7159 8.83975 21.5955 8.54906 21.3811 8.33474C21.1668 8.12041 20.8761 8 20.573 8H19.0492C18.7461 8 18.4554 8.12041 18.2411 8.33474C18.0268 8.54906 17.9064 8.83975 17.9064 9.14286V9.64571L16.6568 8.37333C16.454 8.23558 16.2126 8.16578 15.9675 8.17399C15.7224 8.18221 15.4862 8.26801 15.293 8.41905L8.94636 14.8571L8.10826 15.7105C8.03754 15.7832 7.99861 15.8811 8.00004 15.9825C8.00147 16.084 8.04314 16.1807 8.11588 16.2514C8.18863 16.3222 8.28649 16.3611 8.38794 16.3597C8.48938 16.3582 8.58611 16.3166 8.65683 16.2438L8.80922 16.0838V22.8571C8.80922 23.1602 8.92962 23.4509 9.14395 23.6653C9.35828 23.8796 9.64897 24 9.95207 24H22.0511C22.3542 24 22.6449 23.8796 22.8592 23.6653C23.0736 23.4509 23.194 23.1602 23.194 22.8571V16.1067L23.3464 16.2667C23.4171 16.3394 23.5138 16.3811 23.6153 16.3825C23.7167 16.3839 23.8146 16.345 23.8873 16.2743C23.9601 16.2036 24.0017 16.1068 24.0032 16.0054C24.0046 15.9039 23.9657 15.8061 23.8949 15.7333ZM18.6683 9.14286C18.6683 9.04182 18.7084 8.94493 18.7798 8.87348C18.8513 8.80204 18.9482 8.7619 19.0492 8.7619H20.573C20.6741 8.7619 20.771 8.80204 20.8424 8.87348C20.9138 8.94493 20.954 9.04182 20.954 9.14286V12.7467L18.6683 10.4229V9.14286ZM14.0968 23.2381V19.0476C14.0968 18.9466 14.137 18.8497 14.2084 18.7782C14.2799 18.7068 14.3768 18.6667 14.4778 18.6667H17.5254C17.6264 18.6667 17.7233 18.7068 17.7948 18.7782C17.8662 18.8497 17.9064 18.9466 17.9064 19.0476V23.2381H14.0968ZM22.4321 22.8571C22.4321 22.9582 22.3919 23.0551 22.3205 23.1265C22.2491 23.198 22.1522 23.2381 22.0511 23.2381H18.6683V19.0476C18.6683 18.7445 18.5479 18.4538 18.3335 18.2395C18.1192 18.0252 17.8285 17.9048 17.5254 17.9048H14.4778C14.1747 17.9048 13.884 18.0252 13.6697 18.2395C13.4553 18.4538 13.3349 18.7445 13.3349 19.0476V23.2381H9.95207C9.85104 23.2381 9.75414 23.198 9.6827 23.1265C9.61126 23.0551 9.57112 22.9582 9.57112 22.8571V15.3295L15.7806 8.9981C15.8365 8.95882 15.9013 8.93407 15.9691 8.92609C16.037 8.91811 16.1057 8.92715 16.1692 8.95238L22.4321 15.3371V22.8571Z" fill="white"/>
</svg>
