<svg width="155" height="32" viewBox="0 0 155 32" fill="none" xmlns="http://www.w3.org/2000/svg">
<path d="M0 14.6286C0 9.50809 0 6.94785 0.996512 4.99209C1.87307 3.27175 3.27175 1.87307 4.99209 0.996512C6.94785 0 9.50809 0 14.6286 0H17.3714C22.4919 0 25.0521 0 27.0079 0.996512C28.7283 1.87307 30.1269 3.27175 31.0035 4.99209C32 6.94785 32 9.50809 32 14.6286V17.3714C32 22.4919 32 25.0521 31.0035 27.0079C30.1269 28.7283 28.7283 30.1269 27.0079 31.0035C25.0521 32 22.4919 32 17.3714 32H14.6286C9.50809 32 6.94785 32 4.99209 31.0035C3.27175 30.1269 1.87307 28.7283 0.996512 27.0079C0 25.0521 0 22.4919 0 17.3714V14.6286Z" fill="url(#paint0_linear)"/>
<path fill-rule="evenodd" clip-rule="evenodd" d="M26.4 5.75546C25.8503 7.16829 25.3028 8.58111 24.7577 9.99394C24.2125 11.4068 23.6662 12.8131 23.1187 14.2129C22.5274 15.6822 21.3917 16.8945 19.926 17.6206C18.4837 18.3725 16.8004 18.5899 15.2 18.2307C15.7452 16.8222 16.2915 15.4159 16.839 14.0117L18.4847 9.7765C19.0837 8.31727 20.2107 7.11004 21.6621 6.37269C23.1136 5.63534 24.794 5.41642 26.4 5.75546Z" fill="white"/>
<path fill-rule="evenodd" clip-rule="evenodd" d="M16.8 12.9603L15.1567 17.1723L13.5167 21.3843C12.9299 22.862 11.7933 24.0839 10.3221 24.8187C8.88084 25.5672 7.20071 25.7874 5.60004 25.4375L7.25362 21.1996L8.89697 16.9876C9.48696 15.5218 10.6208 14.3118 12.0848 13.5856C13.5227 12.8347 15.2008 12.6122 16.8 12.9603Z" fill="white"/>
<path d="M59.9405 13.4843C59.9405 14.7711 59.6484 15.9525 59.0644 17.0284C58.4803 18.0832 57.5833 18.9376 56.3734 19.5916C55.1635 20.2456 53.6615 20.5725 51.8675 20.5725H48.5507V28.5468H43.2V6.33274H51.8675C53.6198 6.33274 55.1009 6.63863 56.3108 7.25042C57.5207 7.8622 58.4281 8.70604 59.0331 9.78194C59.638 10.8578 59.9405 12.0919 59.9405 13.4843ZM51.4607 16.269C52.4829 16.269 53.2443 16.0264 53.745 15.5411C54.2456 15.0559 54.4959 14.3703 54.4959 13.4843C54.4959 12.5983 54.2456 11.9126 53.745 11.4274C53.2443 10.9422 52.4829 10.6996 51.4607 10.6996H48.5507V16.269H51.4607Z" fill="#183F4F"/>
<path d="M68.0768 13.8324C68.7026 12.862 69.4849 12.1025 70.4236 11.554C71.3623 10.9844 72.4053 10.6996 73.5526 10.6996V16.4272H72.082C70.7469 16.4272 69.7456 16.7225 69.0781 17.3132C68.4106 17.8828 68.0768 18.8954 68.0768 20.351V28.5468H62.7261V10.8895H68.0768V13.8324Z" fill="#183F4F"/>
<path d="M75.0463 19.6865C75.0463 17.8723 75.3801 16.2795 76.0476 14.9083C76.736 13.537 77.6643 12.4822 78.8325 11.7439C80.0006 11.0055 81.3044 10.6363 82.7438 10.6363C83.9745 10.6363 85.0489 10.8895 85.9667 11.3958C86.9054 11.9021 87.6251 12.5666 88.1258 13.3894V10.8895H93.4765V28.5468H88.1258V26.047C87.6043 26.8697 86.8741 27.5342 85.9354 28.0405C85.0176 28.5468 83.9433 28.8 82.7125 28.8C81.294 28.8 80.0006 28.4308 78.8325 27.6924C77.6643 26.933 76.736 25.8676 76.0476 24.4964C75.3801 23.1041 75.0463 21.5008 75.0463 19.6865ZM88.1258 19.7182C88.1258 18.368 87.7503 17.3027 86.9993 16.5221C86.2692 15.7416 85.3722 15.3513 84.3083 15.3513C83.2444 15.3513 82.337 15.7416 81.586 16.5221C80.8559 17.2816 80.4909 18.3364 80.4909 19.6865C80.4909 21.0367 80.8559 22.1126 81.586 22.9142C82.337 23.6948 83.2444 24.085 84.3083 24.085C85.3722 24.085 86.2692 23.6948 86.9993 22.9142C87.7503 22.1336 88.1258 21.0683 88.1258 19.7182Z" fill="#183F4F"/>
<path d="M100.038 9.05412C99.0997 9.05412 98.3279 8.77987 97.7229 8.23138C97.1388 7.66179 96.8468 6.96562 96.8468 6.14288C96.8468 5.29903 97.1388 4.60287 97.7229 4.05437C98.3279 3.48478 99.0997 3.19998 100.038 3.19998C100.956 3.19998 101.707 3.48478 102.291 4.05437C102.896 4.60287 103.199 5.29903 103.199 6.14288C103.199 6.96562 102.896 7.66179 102.291 8.23138C101.707 8.77987 100.956 9.05412 100.038 9.05412ZM102.698 10.8895V28.5468H97.3475V10.8895H102.698Z" fill="#183F4F"/>
<path d="M111.926 13.8324C112.552 12.862 113.335 12.1025 114.273 11.554C115.212 10.9844 116.255 10.6996 117.402 10.6996V16.4272H115.932C114.597 16.4272 113.595 16.7225 112.928 17.3132C112.26 17.8828 111.926 18.8954 111.926 20.351V28.5468H106.576V10.8895H111.926V13.8324Z" fill="#183F4F"/>
<path d="M122.651 9.05412C121.712 9.05412 120.94 8.77987 120.335 8.23138C119.751 7.66179 119.459 6.96562 119.459 6.14288C119.459 5.29903 119.751 4.60287 120.335 4.05437C120.94 3.48478 121.712 3.19998 122.651 3.19998C123.569 3.19998 124.32 3.48478 124.904 4.05437C125.509 4.60287 125.811 5.29903 125.811 6.14288C125.811 6.96562 125.509 7.66179 124.904 8.23138C124.32 8.77987 123.569 9.05412 122.651 9.05412ZM125.311 10.8895V28.5468H119.96V10.8895H125.311Z" fill="#183F4F"/>
<path d="M145.647 19.4334C145.647 19.9397 145.616 20.4671 145.553 21.0156H133.444C133.527 22.1125 133.871 22.9564 134.476 23.5471C135.102 24.1167 135.863 24.4015 136.76 24.4015C138.095 24.4015 139.024 23.8319 139.545 22.6927H145.24C144.948 23.853 144.416 24.8972 143.644 25.8254C142.893 26.7537 141.944 27.4815 140.797 28.0089C139.65 28.5363 138.367 28.8 136.948 28.8C135.238 28.8 133.715 28.4308 132.38 27.6924C131.045 26.9541 130.002 25.8993 129.251 24.528C128.5 23.1568 128.124 21.5535 128.124 19.7182C128.124 17.8828 128.489 16.2795 129.219 14.9083C129.97 13.537 131.013 12.4822 132.348 11.7439C133.684 11.0055 135.217 10.6363 136.948 10.6363C138.638 10.6363 140.14 10.995 141.454 11.7122C142.768 12.4295 143.79 13.4526 144.521 14.7817C145.271 16.1107 145.647 17.6613 145.647 19.4334ZM140.171 18.0094C140.171 17.0812 139.858 16.3428 139.232 15.7943C138.607 15.2458 137.824 14.9716 136.886 14.9716C135.989 14.9716 135.227 15.2353 134.601 15.7627C133.996 16.2901 133.621 17.039 133.475 18.0094H140.171Z" fill="#183F4F"/>
<path d="M150.973 28.8C150.034 28.8 149.263 28.5258 148.658 27.9773C148.073 27.4077 147.781 26.7115 147.781 25.8887C147.781 25.0449 148.073 24.3382 148.658 23.7686C149.263 23.199 150.034 22.9142 150.973 22.9142C151.891 22.9142 152.642 23.199 153.226 23.7686C153.831 24.3382 154.133 25.0449 154.133 25.8887C154.133 26.7115 153.831 27.4077 153.226 27.9773C152.642 28.5258 151.891 28.8 150.973 28.8Z" fill="#36BCA8"/>
<defs>
<linearGradient id="paint0_linear" x1="16" y1="0" x2="16" y2="32" gradientUnits="userSpaceOnUse">
<stop stop-color="#35BCA8"/>
<stop offset="1" stop-color="#91BE72"/>
</linearGradient>
</defs>
</svg>
