<svg width="224" height="37" viewBox="0 0 224 37" fill="none" xmlns="http://www.w3.org/2000/svg">
<path d="M0 14.6286C0 9.50809 0 6.94785 0.996512 4.99209C1.87307 3.27175 3.27175 1.87307 4.99209 0.996512C6.94785 0 9.50809 0 14.6286 0H17.3714C22.4919 0 25.0521 0 27.0079 0.996512C28.7283 1.87307 30.1269 3.27175 31.0035 4.99209C32 6.94785 32 9.50809 32 14.6286V17.3714C32 22.4919 32 25.0521 31.0035 27.0079C30.1269 28.7283 28.7283 30.1269 27.0079 31.0035C25.0521 32 22.4919 32 17.3714 32H14.6286C9.50809 32 6.94785 32 4.99209 31.0035C3.27175 30.1269 1.87307 28.7283 0.996512 27.0079C0 25.0521 0 22.4919 0 17.3714V14.6286Z" fill="url(#paint0_linear)"/>
<path fill-rule="evenodd" clip-rule="evenodd" d="M26.4001 5.75546C25.8504 7.16829 25.3029 8.58111 24.7577 9.99394C24.2125 11.4068 23.6662 12.8131 23.1188 14.2129C22.5275 15.6822 21.3917 16.8945 19.9261 17.6206C18.4838 18.3725 16.8005 18.5899 15.2001 18.2307C15.7453 16.8222 16.2916 15.4159 16.839 14.0117L18.4848 9.7765C19.0838 8.31727 20.2107 7.11004 21.6622 6.37269C23.1137 5.63534 24.794 5.41642 26.4001 5.75546Z" fill="white"/>
<path fill-rule="evenodd" clip-rule="evenodd" d="M16.8 12.9603L15.1566 17.1723L13.5167 21.3843C12.9299 22.862 11.7933 24.0839 10.322 24.8187C8.88078 25.5672 7.20065 25.7874 5.59998 25.4375L7.25355 21.1996L8.89691 16.9876C9.4869 15.5218 10.6208 14.3118 12.0847 13.5856C13.5226 12.8347 15.2007 12.6122 16.8 12.9603Z" fill="white"/>
<path d="M59.9406 13.4843C59.9406 14.7711 59.6485 15.9525 59.0644 17.0284C58.4803 18.0832 57.5833 18.9376 56.3734 19.5916C55.1635 20.2456 53.6616 20.5725 51.8676 20.5725H48.5508V28.5468H43.2001V6.33274H51.8676C53.6199 6.33274 55.1009 6.63863 56.3108 7.25042C57.5207 7.8622 58.4282 8.70604 59.0331 9.78194C59.6381 10.8578 59.9406 12.0919 59.9406 13.4843ZM51.4608 16.269C52.483 16.269 53.2444 16.0264 53.745 15.5411C54.2457 15.0559 54.496 14.3703 54.496 13.4843C54.496 12.5983 54.2457 11.9126 53.745 11.4274C53.2444 10.9422 52.483 10.6996 51.4608 10.6996H48.5508V16.269H51.4608Z" fill="#183F4F"/>
<path d="M68.0769 13.8324C68.7027 12.862 69.4849 12.1025 70.4236 11.554C71.3624 10.9844 72.4054 10.6996 73.5527 10.6996V16.4272H72.0821C70.747 16.4272 69.7457 16.7225 69.0781 17.3132C68.4106 17.8828 68.0769 18.8954 68.0769 20.351V28.5468H62.7262V10.8895H68.0769V13.8324Z" fill="#183F4F"/>
<path d="M75.0463 19.6865C75.0463 17.8723 75.3801 16.2795 76.0476 14.9083C76.736 13.537 77.6643 12.4822 78.8325 11.7439C80.0007 11.0055 81.3045 10.6363 82.7438 10.6363C83.9746 10.6363 85.0489 10.8895 85.9668 11.3958C86.9055 11.9021 87.6252 12.5666 88.1258 13.3894V10.8895H93.4765V28.5468H88.1258V26.047C87.6043 26.8697 86.8742 27.5342 85.9355 28.0405C85.0176 28.5468 83.9433 28.8 82.7125 28.8C81.294 28.8 80.0007 28.4308 78.8325 27.6924C77.6643 26.933 76.736 25.8676 76.0476 24.4964C75.3801 23.1041 75.0463 21.5008 75.0463 19.6865ZM88.1258 19.7182C88.1258 18.368 87.7503 17.3027 86.9994 16.5221C86.2692 15.7416 85.3722 15.3513 84.3084 15.3513C83.2445 15.3513 82.3371 15.7416 81.5861 16.5221C80.856 17.2816 80.4909 18.3364 80.4909 19.6865C80.4909 21.0367 80.856 22.1126 81.5861 22.9142C82.3371 23.6948 83.2445 24.085 84.3084 24.085C85.3722 24.085 86.2692 23.6948 86.9994 22.9142C87.7503 22.1336 88.1258 21.0683 88.1258 19.7182Z" fill="#183F4F"/>
<path d="M100.039 9.05412C99.0998 9.05412 98.328 8.77987 97.723 8.23138C97.1389 7.66179 96.8469 6.96562 96.8469 6.14288C96.8469 5.29903 97.1389 4.60287 97.723 4.05437C98.328 3.48478 99.0998 3.19998 100.039 3.19998C100.956 3.19998 101.707 3.48478 102.291 4.05437C102.896 4.60287 103.199 5.29903 103.199 6.14288C103.199 6.96562 102.896 7.66179 102.291 8.23138C101.707 8.77987 100.956 9.05412 100.039 9.05412ZM102.698 10.8895V28.5468H97.3475V10.8895H102.698Z" fill="#183F4F"/>
<path d="M111.927 13.8324C112.552 12.862 113.335 12.1025 114.273 11.554C115.212 10.9844 116.255 10.6996 117.402 10.6996V16.4272H115.932C114.597 16.4272 113.595 16.7225 112.928 17.3132C112.26 17.8828 111.927 18.8954 111.927 20.351V28.5468H106.576V10.8895H111.927V13.8324Z" fill="#183F4F"/>
<path d="M122.651 9.05412C121.712 9.05412 120.94 8.77987 120.335 8.23138C119.751 7.66179 119.459 6.96562 119.459 6.14288C119.459 5.29903 119.751 4.60287 120.335 4.05437C120.94 3.48478 121.712 3.19998 122.651 3.19998C123.569 3.19998 124.32 3.48478 124.904 4.05437C125.509 4.60287 125.811 5.29903 125.811 6.14288C125.811 6.96562 125.509 7.66179 124.904 8.23138C124.32 8.77987 123.569 9.05412 122.651 9.05412ZM125.311 10.8895V28.5468H119.96V10.8895H125.311Z" fill="#183F4F"/>
<path d="M145.647 19.4334C145.647 19.9397 145.616 20.4671 145.553 21.0156H133.444C133.527 22.1125 133.871 22.9564 134.476 23.5471C135.102 24.1167 135.863 24.4015 136.76 24.4015C138.096 24.4015 139.024 23.8319 139.545 22.6927H145.24C144.948 23.853 144.416 24.8972 143.644 25.8254C142.893 26.7537 141.944 27.4815 140.797 28.0089C139.65 28.5363 138.367 28.8 136.948 28.8C135.238 28.8 133.715 28.4308 132.38 27.6924C131.045 26.9541 130.002 25.8993 129.251 24.528C128.5 23.1568 128.124 21.5535 128.124 19.7182C128.124 17.8828 128.489 16.2795 129.219 14.9083C129.97 13.537 131.013 12.4822 132.349 11.7439C133.684 11.0055 135.217 10.6363 136.948 10.6363C138.638 10.6363 140.14 10.995 141.454 11.7122C142.768 12.4295 143.79 13.4526 144.521 14.7817C145.272 16.1107 145.647 17.6613 145.647 19.4334ZM140.171 18.0094C140.171 17.0812 139.858 16.3428 139.232 15.7943C138.607 15.2458 137.824 14.9716 136.886 14.9716C135.989 14.9716 135.227 15.2353 134.601 15.7627C133.996 16.2901 133.621 17.039 133.475 18.0094H140.171Z" fill="#183F4F"/>
<path d="M169.397 17.0713C170.225 17.198 170.976 17.5254 171.651 18.0535C172.347 18.5815 172.891 19.2363 173.283 20.0178C173.697 20.7993 173.904 21.6337 173.904 22.5208C173.904 23.6403 173.61 24.6541 173.022 25.5624C172.434 26.4495 171.574 27.1571 170.442 27.6851C169.332 28.1921 168.015 28.4455 166.491 28.4455H158V6.36238H166.164C167.71 6.36238 169.027 6.61584 170.116 7.12277C171.204 7.60858 172.021 8.27393 172.565 9.11881C173.109 9.9637 173.381 10.9142 173.381 11.9703C173.381 13.2799 173.011 14.3677 172.271 15.2337C171.553 16.0785 170.595 16.6911 169.397 17.0713ZM160.972 15.899H165.968C167.362 15.899 168.439 15.5822 169.201 14.9485C169.963 14.3149 170.344 13.4383 170.344 12.3188C170.344 11.1993 169.963 10.3228 169.201 9.68911C168.439 9.05545 167.34 8.73861 165.903 8.73861H160.972V15.899ZM166.229 26.0693C167.71 26.0693 168.864 25.7314 169.691 25.0554C170.518 24.3795 170.932 23.4396 170.932 22.2356C170.932 21.0106 170.497 20.0495 169.626 19.3525C168.755 18.6343 167.59 18.2752 166.132 18.2752H160.972V26.0693H166.229Z" fill="#183F4F"/>
<path d="M181 5V28.4455H178.028V5H181Z" fill="#183F4F"/>
<path d="M193.869 28.7307C192.193 28.7307 190.669 28.3611 189.297 27.6218C187.948 26.8825 186.881 25.837 186.097 24.4851C185.335 23.1122 184.954 21.5281 184.954 19.7327C184.954 17.9584 185.346 16.3954 186.13 15.0436C186.935 13.6706 188.024 12.6251 189.395 11.9069C190.767 11.1677 192.302 10.798 194 10.798C195.698 10.798 197.233 11.1677 198.605 11.9069C199.976 12.6251 201.054 13.6601 201.838 15.0119C202.643 16.3637 203.046 17.9373 203.046 19.7327C203.046 21.5281 202.632 23.1122 201.805 24.4851C200.999 25.837 199.9 26.8825 198.507 27.6218C197.113 28.3611 195.567 28.7307 193.869 28.7307ZM193.869 26.196C194.936 26.196 195.938 25.9531 196.874 25.4673C197.81 24.9815 198.561 24.2528 199.127 23.2812C199.715 22.3096 200.009 21.1267 200.009 19.7327C200.009 18.3386 199.726 17.1558 199.16 16.1842C198.594 15.2125 197.853 14.4944 196.939 14.0297C196.025 13.5439 195.034 13.301 193.967 13.301C192.879 13.301 191.877 13.5439 190.963 14.0297C190.07 14.4944 189.352 15.2125 188.808 16.1842C188.263 17.1558 187.991 18.3386 187.991 19.7327C187.991 21.1479 188.252 22.3413 188.775 23.3129C189.319 24.2845 190.038 25.0132 190.93 25.499C191.823 25.9637 192.803 26.196 193.869 26.196Z" fill="#183F4F"/>
<path d="M214.334 10.798C215.879 10.798 217.229 11.1254 218.383 11.7802C219.559 12.435 220.43 13.2587 220.996 14.2515V11.0832H224V28.8257C224 30.4099 223.652 31.8145 222.955 33.0396C222.258 34.2858 221.257 35.2574 219.951 35.9545C218.666 36.6515 217.164 37 215.444 37C213.093 37 211.133 36.4614 209.566 35.3842C207.998 34.3069 207.073 32.8389 206.79 30.9802H209.729C210.056 32.0363 210.73 32.8812 211.754 33.5149C212.777 34.1696 214.007 34.497 215.444 34.497C217.077 34.497 218.405 34.0007 219.428 33.0079C220.473 32.0152 220.996 30.6211 220.996 28.8257V25.1822C220.408 26.196 219.537 27.0409 218.383 27.7168C217.229 28.3927 215.879 28.7307 214.334 28.7307C212.744 28.7307 211.297 28.3505 209.99 27.5901C208.706 26.8297 207.693 25.763 206.953 24.3901C206.213 23.0172 205.843 21.4541 205.843 19.701C205.843 17.9267 206.213 16.3743 206.953 15.0436C207.693 13.6917 208.706 12.6462 209.99 11.9069C211.297 11.1677 212.744 10.798 214.334 10.798ZM220.996 19.7327C220.996 18.4231 220.723 17.2825 220.179 16.3109C219.635 15.3393 218.895 14.6 217.959 14.0931C217.044 13.565 216.032 13.301 214.921 13.301C213.811 13.301 212.799 13.5545 211.884 14.0614C210.97 14.5683 210.241 15.3076 209.696 16.2792C209.152 17.2508 208.88 18.3914 208.88 19.701C208.88 21.0317 209.152 22.1934 209.696 23.1861C210.241 24.1578 210.97 24.9076 211.884 25.4356C212.799 25.9426 213.811 26.196 214.921 26.196C216.032 26.196 217.044 25.9426 217.959 25.4356C218.895 24.9076 219.635 24.1578 220.179 23.1861C220.723 22.1934 220.996 21.0422 220.996 19.7327Z" fill="#183F4F"/>
<path d="M151.796 28.9142C150.91 28.9142 150.181 28.6346 149.609 28.0755C149.057 27.4949 148.781 26.7852 148.781 25.9465C148.781 25.0863 149.057 24.3658 149.609 23.7852C150.181 23.2045 150.91 22.9142 151.796 22.9142C152.663 22.9142 153.373 23.2045 153.924 23.7852C154.496 24.3658 154.781 25.0863 154.781 25.9465C154.781 26.7852 154.496 27.4949 153.924 28.0755C153.373 28.6346 152.663 28.9142 151.796 28.9142Z" fill="#36BCA8"/>
<defs>
<linearGradient id="paint0_linear" x1="16" y1="0" x2="16" y2="32" gradientUnits="userSpaceOnUse">
<stop stop-color="#35BCA8"/>
<stop offset="1" stop-color="#91BE72"/>
</linearGradient>
</defs>
</svg>
