<svg width="16" height="16" viewBox="0 0 16 16" fill="none" xmlns="http://www.w3.org/2000/svg">
<path fill-rule="evenodd" clip-rule="evenodd" d="M8 0C3.56667 0 0 3.56667 0 8C0 12.4333 3.56667 16 8 16C12.4333 16 16 12.4333 16 8C16 3.56667 12.4333 0 8 0ZM8 14.6667C4.33333 14.6667 1.33333 11.6667 1.33333 8C1.33333 4.33333 4.33333 1.33333 8 1.33333C11.6667 1.33333 14.6667 4.33333 14.6667 8C14.6667 11.6667 11.6667 14.6667 8 14.6667ZM10.6667 7.33333H8.66667V4C8.66667 3.63333 8.36667 3.33333 8 3.33333C7.63333 3.33333 7.33333 3.63333 7.33333 4V8C7.33333 8.36667 7.63333 8.66667 8 8.66667H10.6667C11.0333 8.66667 11.3333 8.36667 11.3333 8C11.3333 7.63333 11.0333 7.33333 10.6667 7.33333Z" fill="#456772"/>
</svg>
